<?xml version="1.0" encoding="UTF-8"?>
<!-- Receptor RF 433 MHz MX-05V / MX-RM-5V, vista de cima.
     72 unidades por polegada: 1 mm = 2,834646 u e o passo de 0,1" = 7,2 u.
     Placa de 30 x 14 mm. Os pinos sao VCC DATA DATA GND da esquerda para a
     direita VISTA DE CIMA; a serigrafia fica no verso e la se le o inverso. -->
<svg xmlns="http://www.w3.org/2000/svg" version="1.1"
     width="1.18110in" height="0.69292in" viewBox="0 0 85.039 49.890">
 <g id="breadboard">

  <rect x="0" y="0" width="85.039" height="39.685" rx="1.5" fill="#1f7a34"/>
  <rect x="0.4" y="0.4" width="84.239" height="38.885" rx="1.2"
        fill="none" stroke="#14562a" stroke-width="0.8"/>

  <rect x="8.50" y="4.25" width="14.18" height="11.34" rx="0.6" fill="#1a1a1a"/>
  <rect x="10.0" y="2.9" width="1.6" height="1.5" fill="#b0b0b0"/>
  <rect x="13.2" y="2.9" width="1.6" height="1.5" fill="#b0b0b0"/>
  <rect x="16.4" y="2.9" width="1.6" height="1.5" fill="#b0b0b0"/>
  <rect x="19.6" y="2.9" width="1.6" height="1.5" fill="#b0b0b0"/>
  <rect x="10.0" y="15.4" width="1.6" height="1.5" fill="#b0b0b0"/>
  <rect x="13.2" y="15.4" width="1.6" height="1.5" fill="#b0b0b0"/>
  <rect x="16.4" y="15.4" width="1.6" height="1.5" fill="#b0b0b0"/>
  <rect x="19.6" y="15.4" width="1.6" height="1.5" fill="#b0b0b0"/>

  <rect x="36.85" y="4.25" width="12.76" height="12.76" rx="0.8" fill="#7fd4d4"/>
  <rect x="36.85" y="4.25" width="12.76" height="12.76" rx="0.8"
        fill="none" stroke="#4f9c9c" stroke-width="0.7"/>
  <circle cx="43.23" cy="10.63" r="4.0" fill="#d4af37"/>
  <rect x="39.9" y="9.9" width="6.7" height="1.5" fill="#6b5a1f"/>

  <ellipse cx="55.6" cy="14.17" rx="1.98" ry="5.67" fill="none" stroke="#b87333" stroke-width="1.3"/>
  <ellipse cx="59.0" cy="14.17" rx="1.98" ry="5.67" fill="none" stroke="#b87333" stroke-width="1.3"/>
  <ellipse cx="62.4" cy="14.17" rx="1.98" ry="5.67" fill="none" stroke="#c98a4b" stroke-width="1.3"/>
  <ellipse cx="65.8" cy="14.17" rx="1.98" ry="5.67" fill="none" stroke="#b87333" stroke-width="1.3"/>
  <ellipse cx="69.2" cy="14.17" rx="1.98" ry="5.67" fill="none" stroke="#b87333" stroke-width="1.3"/>

  <rect x="10.0" y="20.0" width="4.5" height="2.3" fill="#c7b299"/>
  <rect x="17.0" y="20.0" width="4.5" height="2.3" fill="#4d4d4d"/>
  <rect x="24.0" y="22.0" width="2.3" height="4.5" fill="#c7b299"/>
  <rect x="30.0" y="20.0" width="4.5" height="2.3" fill="#4d4d4d"/>
  <rect x="38.0" y="22.0" width="4.5" height="2.3" fill="#c7b299"/>
  <rect x="46.0" y="22.0" width="4.5" height="2.3" fill="#4d4d4d"/>
  <rect x="56.0" y="24.0" width="4.5" height="2.3" fill="#c7b299"/>
  <rect x="64.0" y="24.0" width="4.5" height="2.3" fill="#4d4d4d"/>
  <rect x="72.0" y="22.0" width="2.3" height="4.5" fill="#c7b299"/>

  <circle id="connector4pin" cx="77.953" cy="11.339" r="2.6" fill="#c0c0c0" stroke="none"/>
  <circle cx="77.953" cy="11.339" r="1.2" fill="#1f7a34"/>

  <text x="77.953" y="19.5" font-family="Noto Sans" font-size="2.8"
        fill="#ffffff" text-anchor="middle">ANT</text>
  <text x="58.0" y="34.5" font-family="Noto Sans" font-size="3.4"
        fill="#ffffff" text-anchor="middle">MX-05V</text>

  <text x="9.269"  y="31.4" font-family="Noto Sans" font-size="2.4"
        fill="#ffffff" text-anchor="middle">VCC</text>
  <text x="16.469" y="31.4" font-family="Noto Sans" font-size="2.4"
        fill="#ffffff" text-anchor="middle">DATA</text>
  <text x="23.669" y="31.4" font-family="Noto Sans" font-size="2.4"
        fill="#ffffff" text-anchor="middle">DATA</text>
  <text x="30.869" y="31.4" font-family="Noto Sans" font-size="2.4"
        fill="#ffffff" text-anchor="middle">GND</text>

  <rect x="5.669" y="32.598" width="28.8" height="7.087" fill="#1a1a1a"/>
  <rect x="5.669" y="32.598" width="28.8" height="1.2" fill="#333333"/>

  <rect id="connector0pin" x="8.362"  y="39.685" width="1.814" height="10.205" fill="#8c8c8c" stroke="none"/>
  <rect id="connector1pin" x="15.562" y="39.685" width="1.814" height="10.205" fill="#8c8c8c" stroke="none"/>
  <rect id="connector2pin" x="22.762" y="39.685" width="1.814" height="10.205" fill="#8c8c8c" stroke="none"/>
  <rect id="connector3pin" x="29.962" y="39.685" width="1.814" height="10.205" fill="#8c8c8c" stroke="none"/>
 </g>
</svg>
